<?xml version="1.0" encoding="UTF-8" standalone="no"?>
<!DOCTYPE svg PUBLIC "-//W3C//DTD SVG 1.1//EN" "http://www.w3.org/Graphics/SVG/1.1/DTD/svg11.dtd">
<svg width="100%" height="100%" viewBox="0 0 256 256" version="1.1" xmlns="http://www.w3.org/2000/svg" xmlns:xlink="http://www.w3.org/1999/xlink" xml:space="preserve" style="fill-rule:evenodd;clip-rule:evenodd;stroke-linejoin:round;stroke-miterlimit:1.41421;">
    <g transform="matrix(3.73515,0,0,3.73515,30.0306,0)">
        <g>
            <g>
                <g transform="matrix(1.06667,0,0,1,0,0)">
                    <rect x="0" y="4.042" width="49.179" height="64.308" style="fill:white;"/>
                </g>
                <path d="M45.019,6.31L45.019,9.941L40.915,9.941L40.915,6.31L36.644,6.31L36.644,9.941L32.54,9.941L32.54,6.31L28.27,6.31L28.27,9.941L24.166,9.941L24.166,6.31L19.895,6.31L19.895,9.941L15.791,9.941L15.791,6.31L11.52,6.31L11.52,9.941L7.417,9.941L7.417,6.31L2.523,6.31L2.523,66.013L49.935,66.013L49.931,6.31L45.019,6.31ZM7.258,18.813L39.447,18.813L39.447,21.337L7.258,21.337L7.258,18.813ZM7.258,34.087L36.082,34.087L36.082,36.614L7.258,36.614L7.258,34.087ZM40.445,41.728L40.445,44.253L7.26,44.253L7.26,41.728L40.445,41.728ZM38.394,59.524L7.259,59.524L7.259,56.999L38.394,56.999L38.394,59.524ZM43.232,51.888L7.258,51.888L7.258,49.365L43.232,49.365L43.232,51.888ZM44.072,28.977L7.26,28.977L7.26,26.451L44.072,26.451L44.072,28.977Z" style="fill:none;"/>
                <path d="M45.019,3.787L45.019,0L40.915,0L40.915,3.787L36.644,3.787L36.644,0L32.54,0L32.54,3.787L28.27,3.787L28.27,0L24.166,0L24.166,3.787L19.895,3.787L19.895,0L15.791,0L15.791,3.787L11.52,3.787L11.52,0L7.417,0L7.417,3.787L0,3.787L0,68.538L52.458,68.538L52.458,67.274L52.458,3.787L45.019,3.787ZM2.523,66.013L2.523,6.31L7.417,6.31L7.417,9.941L11.52,9.941L11.52,6.31L15.792,6.31L15.792,9.941L19.895,9.941L19.895,6.31L24.167,6.31L24.167,9.941L28.27,9.941L28.27,6.31L32.543,6.31L32.543,9.941L36.645,9.941L36.645,6.31L40.918,6.31L40.918,9.941L45.02,9.941L45.02,6.31L49.934,6.31L49.936,66.013L2.523,66.013Z" style="fill:rgb(57,57,57);fill-rule:nonzero;stroke:rgb(57,57,57);stroke-width:0.27px;"/>
                <rect x="7.258" y="18.813" width="32.189" height="2.524" style="fill:rgb(57,57,57);"/>
                <rect x="7.26" y="26.451" width="36.812" height="2.526" style="fill:rgb(57,57,57);"/>
                <rect x="7.258" y="34.087" width="28.824" height="2.527" style="fill:rgb(57,57,57);"/>
                <rect x="7.26" y="41.728" width="33.185" height="2.525" style="fill:rgb(57,57,57);"/>
                <rect x="7.258" y="49.364" width="35.974" height="2.523" style="fill:rgb(57,57,57);"/>
                <rect x="7.259" y="56.999" width="31.135" height="2.525" style="fill:rgb(57,57,57);"/>
            </g>
        </g>
    </g>
</svg>
